<?xml version="1.0" standalone="no"?>
<!DOCTYPE svg PUBLIC "-//W3C//DTD SVG 20010904//EN"
 "http://www.w3.org/TR/2001/REC-SVG-20010904/DTD/svg10.dtd">
<svg version="1.0" xmlns="http://www.w3.org/2000/svg"
 width="512.000000pt" height="512.000000pt" viewBox="0 0 512.000000 512.000000"
 preserveAspectRatio="xMidYMid meet">

<g transform="translate(0.000000,512.000000) scale(0.100000,-0.100000)"
fill="#000000" stroke="none">
<path d="M2365 5029 c-488 -37 -972 -231 -1365 -546 -107 -85 -276 -254 -359
-358 l-64 -80 61 -6 c66 -6 112 -31 146 -78 13 -16 3 -11 -26 16 -49 44 -87
57 -153 51 -38 -3 -43 -8 -95 -84 -30 -45 -75 -116 -99 -158 -40 -71 -43 -80
-33 -112 12 -40 6 -46 -9 -8 -5 15 -11 25 -14 23 -2 -3 -27 -55 -54 -117 -47
-105 -49 -113 -28 -107 20 5 19 4 -3 -9 -19 -11 -32 -37 -57 -113 -137 -422
-164 -861 -78 -1276 22 -108 32 -138 52 -153 17 -13 17 -14 1 -8 -10 3 -18 3
-18 0 0 -4 18 -60 40 -126 92 -276 225 -523 403 -748 l66 -84 4 34 c4 33 4 33
5 -5 2 -34 13 -50 110 -149 158 -163 380 -337 431 -339 20 -1 21 -3 7 -6 -38
-10 271 -175 442 -237 44 -15 70 -21 66 -13 -4 6 1 4 12 -5 26 -22 236 -80
395 -108 173 -31 531 -39 709 -16 157 21 324 58 460 102 116 38 121 40 139 69
11 19 12 19 6 -2 -6 -22 -6 -22 32 -7 72 29 278 134 342 173 48 30 59 40 45
44 -14 3 -12 5 7 6 51 2 230 142 417 325 115 113 122 122 123 160 2 39 2 40 8
9 l6 -31 53 66 c122 153 252 368 332 551 34 77 120 320 120 338 0 3 -8 2 -17
-1 -16 -5 -16 -5 0 8 22 17 39 78 69 246 20 109 23 159 23 400 0 307 -12 408
-80 653 -46 170 -71 232 -98 246 l-22 11 22 -6 c21 -5 19 3 -28 108 -27 62
-53 115 -57 118 -4 3 -22 35 -41 71 -18 36 -63 111 -100 165 l-66 99 -60 6
-60 5 54 5 54 4 -64 80 c-35 44 -111 127 -169 185 -422 423 -972 674 -1575
719 -156 12 -210 12 -370 0z m48 -236 c-7 -2 -21 -2 -30 0 -10 3 -4 5 12 5 17
0 24 -2 18 -5z m330 0 c-7 -2 -21 -2 -30 0 -10 3 -4 5 12 5 17 0 24 -2 18 -5z
m-617 -325 c-61 -20 -102 -63 -118 -122 l-11 -43 -146 58 c-80 33 -148 59
-152 59 -14 0 -20 -60 -10 -93 7 -20 54 -75 124 -144 l112 -111 123 -4 c122
-4 123 -4 155 -36 l31 -32 54 53 c46 45 52 48 43 24 -6 -16 -11 -90 -11 -165
l0 -137 80 -89 c71 -78 80 -93 80 -127 l0 -39 160 0 160 0 0 40 c0 37 9 51 80
134 l80 94 0 106 0 106 160 0 160 0 0 41 c0 36 9 51 80 135 l80 95 0 91 0 90
88 -47 c111 -60 176 -102 280 -179 l83 -61 -94 -7 c-104 -7 -193 -33 -265 -77
-55 -35 -79 -71 -87 -132 l-6 -44 21 37 c24 44 95 89 189 118 90 28 292 28
382 0 103 -32 166 -74 191 -125 l22 -45 -22 -23 -22 -23 30 -41 c17 -23 36
-44 43 -46 7 -2 3 -3 -9 -1 -32 5 -92 -15 -121 -41 l-28 -25 34 11 c109 37
334 -98 443 -266 49 -75 83 -182 73 -232 -6 -35 -6 -36 12 -22 16 13 17 13 4
-3 -7 -10 -16 -16 -20 -14 -13 6 -39 -32 -30 -45 5 -8 9 -38 9 -68 0 -47 -2
-52 -17 -46 -60 23 -166 37 -258 32 -111 -5 -196 -29 -273 -76 -55 -34 -79
-70 -88 -132 l-6 -44 19 35 c24 43 105 93 192 120 90 28 293 28 382 0 151 -47
211 -108 207 -212 -1 -43 -2 -46 -5 -15 -4 36 -5 37 -26 22 -13 -9 -43 -15
-74 -15 l-53 0 0 -162 c0 -166 -22 -360 -54 -485 -22 -82 -21 -83 18 -76 l34
5 -38 -118 -37 -119 -40 -3 c-39 -3 -40 -4 -72 -76 -43 -98 -143 -264 -224
-374 l-67 -89 0 -92 0 -92 -52 35 -52 35 -65 -62 c-37 -34 -68 -68 -71 -75 -3
-8 -10 -14 -15 -14 -6 0 -47 -27 -92 -61 -77 -56 -81 -62 -67 -78 15 -16 7
-23 -104 -98 l-121 -81 -18 26 -19 25 -69 -31 c-157 -70 -347 -127 -516 -155
-66 -10 -113 -24 -151 -45 -31 -17 -87 -37 -125 -45 -91 -20 -282 -19 -358 0
-73 19 -221 88 -255 119 -33 31 -89 49 -106 35 -9 -7 -24 -3 -56 17 -24 15
-92 51 -153 79 -60 29 -145 73 -188 99 -44 25 -83 44 -87 41 -6 -4 -188 97
-219 121 -2 2 1 10 8 18 10 11 -11 37 -112 137 -198 198 -353 424 -454 665
-25 60 -52 114 -60 121 -8 6 -10 14 -5 17 6 3 0 36 -14 80 -22 69 -53 210 -69
314 l-7 42 34 0 c27 0 35 -5 46 -28 20 -46 187 -204 211 -200 14 2 44 -21 101
-77 44 -44 80 -85 80 -91 0 -6 -24 -34 -54 -62 l-54 -51 18 -88 c10 -48 21
-112 25 -140 4 -29 11 -55 15 -58 4 -3 88 78 187 179 l179 184 22 -18 c12 -10
28 -21 35 -23 7 -3 -91 -109 -226 -244 l-237 -238 110 -110 c108 -107 109
-109 130 -90 11 10 20 21 20 24 0 4 -20 17 -45 31 -25 14 -44 27 -43 30 10 19
139 244 227 395 97 167 112 187 203 274 55 52 107 110 118 130 l18 36 7 -38
c4 -21 5 -51 1 -67 -4 -22 -355 -639 -442 -777 -13 -20 -11 -23 32 -48 25 -15
47 -25 49 -23 1 1 123 206 269 454 l266 451 -32 69 c-17 38 -35 70 -39 72 -4
2 -5 11 -2 20 4 14 3 14 -5 3 -8 -12 -16 -10 -46 8 -20 13 -36 25 -36 29 0 3
12 19 27 34 l27 29 1 162 c0 189 18 269 90 412 l42 85 -61 0 -61 0 30 19 c17
10 67 56 112 103 79 82 82 83 102 66 21 -16 24 -15 99 39 42 30 98 66 124 79
86 44 100 108 38 169 -28 27 -40 48 -40 67 0 25 4 28 40 34 22 4 40 9 40 12 0
4 -16 22 -35 42 -41 41 -39 62 6 80 37 16 82 -1 98 -36 6 -14 11 -78 11 -149
l0 -125 40 0 40 0 0 118 c-1 145 -10 185 -51 228 -59 61 -151 65 -210 8 l-28
-27 -112 106 -112 106 -23 -24 c-14 -15 -29 -22 -42 -18 -24 6 -212 195 -212
212 0 7 11 22 25 35 l24 23 -29 28 c-35 34 -41 30 -79 -47 -22 -44 -31 -53
-53 -53 -15 -1 -37 -10 -50 -20 l-23 -20 21 25 c12 14 24 41 28 61 11 64 74
118 89 77 4 -10 7 -10 18 0 11 10 9 17 -14 39 l-27 28 -85 -85 -85 -84 -31 29
c-18 17 -44 43 -59 59 l-27 29 24 116 c12 64 25 127 28 140 6 23 10 20 79 -48
l74 -73 72 42 c40 23 100 55 134 70 49 23 86 54 191 160 72 73 145 146 164
162 l34 30 62 -153 61 -154 -50 -17z m181 316 c-3 -3 -12 -4 -19 -1 -8 3 -5 6
6 6 11 1 17 -2 13 -5z m530 0 c-3 -3 -12 -4 -19 -1 -8 3 -5 6 6 6 11 1 17 -2
13 -5z m33 -154 c0 -5 -9 -14 -21 -20 -38 -21 -49 -69 -49 -217 l0 -138 57
-65 c32 -36 50 -59 40 -51 -10 8 -19 12 -21 10 -1 -2 -29 -65 -60 -140 l-58
-135 -46 23 c-57 29 -87 29 -145 0 l-46 -24 -58 139 c-44 105 -62 137 -73 132
-8 -3 8 18 35 46 l50 51 3 -41 c3 -39 4 -40 43 -40 l39 0 0 45 c0 58 16 91 51
106 22 9 36 9 58 0 35 -15 51 -48 51 -106 l0 -45 40 0 c40 0 40 0 40 38 -1 65
-17 113 -51 148 -65 67 -156 65 -221 -5 -21 -22 -38 -49 -38 -60 0 -32 -15
-32 -43 -3 -25 26 -28 39 -39 163 -11 127 -13 135 -40 161 -29 27 -29 27 -6
31 48 9 508 7 508 -3z m480 -2 c0 -7 -25 -72 -56 -144 l-56 -130 -46 23 c-25
13 -57 23 -72 23 -15 0 -47 -10 -72 -23 l-46 -23 -56 130 c-31 72 -56 137 -56
144 0 9 53 12 230 12 177 0 230 -3 230 -12z m-2240 -362 c0 -2 -8 -10 -17 -17
-16 -13 -17 -12 -4 4 13 16 21 21 21 13z m2853 -113 c-7 -2 -19 -2 -25 0 -7 3
-2 5 12 5 14 0 19 -2 13 -5z m54 -9 c-3 -3 -12 -4 -19 -1 -8 3 -5 6 6 6 11 1
17 -2 13 -5z m-1059 -75 c-3 -8 -7 -3 -11 10 -4 17 -3 21 5 13 5 -5 8 -16 6
-23z m-1894 -59 c12 0 306 -282 306 -295 0 -6 27 -37 60 -70 l60 -59 16 22 c8
12 25 22 36 22 19 0 20 -4 15 -58 -4 -33 -2 -63 3 -68 7 -7 -36 -55 -118 -137
-160 -158 -161 -158 -264 -59 -39 37 -79 80 -88 96 -18 28 -18 28 -29 7 -6
-11 -32 -36 -58 -56 -85 -65 -112 -34 -44 52 37 47 102 90 119 79 5 -3 64 51
133 120 l124 124 -58 57 -57 58 -85 -85 -85 -84 -31 29 c-17 17 -44 42 -58 56
-20 20 -34 26 -54 22 -34 -7 -34 0 2 46 39 50 46 67 60 141 20 109 18 107 55
71 18 -17 35 -31 40 -31z m3164 -5 c-3 -3 -9 2 -12 12 -6 14 -5 15 5 6 7 -7
10 -15 7 -18z m187 13 c-11 -6 -37 -27 -59 -47 -33 -31 -36 -32 -21 -9 17 27
71 68 90 68 6 -1 1 -6 -10 -12z m-2758 -120 c102 -101 115 -122 91 -146 -26
-26 -54 -11 -150 85 -97 96 -113 124 -86 151 23 23 44 11 145 -90z m2580 70
c-3 -8 -6 -5 -6 6 -1 11 2 17 5 13 3 -3 4 -12 1 -19z m-2852 -58 c14 -24 26
-34 40 -32 14 2 50 -27 118 -96 108 -109 119 -134 58 -140 -30 -3 -41 5 -119
82 -47 47 -93 86 -102 86 -35 0 -69 61 -62 112 6 40 40 34 67 -12z m-621 -15
c-14 -19 -29 -35 -31 -35 -5 0 7 18 36 53 26 31 23 18 -5 -18z m3606 -5 c30
-43 18 -37 -16 7 -15 20 -23 33 -16 29 6 -3 21 -20 32 -36z m-3676 -95 c-9
-14 -18 -25 -21 -25 -5 0 5 18 20 38 17 22 18 13 1 -13z m3746 -6 c15 -28 5
-23 -15 7 -9 15 -12 23 -6 20 6 -4 16 -16 21 -27z m-2560 -24 c-24 -25 -46
-45 -49 -45 -3 0 15 20 39 45 24 25 46 45 49 45 3 0 -15 -20 -39 -45z m2490
-35 c8 -5 11 -10 5 -10 -5 0 -17 5 -25 10 -8 5 -10 10 -5 10 6 0 17 -5 25 -10z
m120 -20 c6 -11 8 -20 6 -20 -3 0 -10 9 -16 20 -6 11 -8 20 -6 20 3 0 10 -9
16 -20z m-3859 -13 c-10 -9 -11 -8 -5 6 3 10 9 15 12 12 3 -3 0 -11 -7 -18z
m-31 -57 c-11 -22 -23 -40 -25 -40 -3 0 4 18 15 40 11 22 23 40 25 40 3 0 -4
-18 -15 -40z m3881 23 c13 -16 12 -17 -3 -4 -17 13 -22 21 -14 21 2 0 10 -8
17 -17z m48 -21 c11 -22 36 -53 56 -70 20 -18 32 -32 27 -32 -4 0 -30 23 -57
50 -27 28 -46 50 -42 50 4 0 3 9 -3 20 -6 11 -8 20 -6 20 3 0 14 -17 25 -38z
m-4033 -87 c22 -8 31 -14 21 -15 -27 0 -69 25 -102 62 l-30 33 36 -33 c20 -19
54 -40 75 -47z m4197 35 c-23 -22 -48 -40 -55 -40 -7 0 1 8 17 19 17 10 39 28
49 40 11 11 22 21 25 21 3 0 -13 -18 -36 -40z m-3888 -30 l38 -39 -61 -66
c-69 -73 -76 -98 -41 -146 l20 -29 -20 0 c-20 0 -21 -5 -21 -120 l0 -120 -78
0 c-76 0 -78 -1 -96 -31 -24 -40 -30 -31 -16 21 11 40 10 44 -32 108 -24 36
-55 80 -70 96 -32 35 -35 46 -12 46 8 0 20 14 26 31 6 16 12 28 14 26 3 -2 0
-16 -5 -31 l-11 -26 83 0 83 0 13 38 c20 58 131 282 140 282 4 0 24 -18 46
-40z m-472 -87 c-7 -2 -19 -2 -25 0 -7 3 -2 5 12 5 14 0 19 -2 13 -5z m127
-22 c14 -10 26 -27 28 -37 2 -14 -1 -12 -10 6 -8 16 -32 32 -63 43 -41 15 -44
17 -15 12 19 -3 46 -14 60 -24z m4283 22 c-7 -2 -19 -2 -25 0 -7 3 -2 5 12 5
14 0 19 -2 13 -5z m70 0 c-7 -2 -19 -2 -25 0 -7 3 -2 5 12 5 14 0 19 -2 13 -5z
m-122 -12 c-11 -7 -10 -18 8 -65 11 -31 21 -67 20 -79 -1 -14 -4 -10 -9 13 -5
20 -18 56 -29 82 -14 34 -16 48 -8 52 20 8 33 6 18 -3z m-3046 -21 c3 -6 -1
-7 -9 -4 -18 7 -21 14 -7 14 6 0 13 -4 16 -10z m149 -95 c0 -47 -28 -95 -54
-95 -22 0 -29 24 -18 64 21 81 74 103 72 31z m-696 -2 c6 -10 13 -34 17 -53 4
-20 25 -54 49 -80 22 -24 31 -36 19 -26 -33 27 -63 17 -78 -26 l-12 -37 45 -3
c52 -3 74 -26 56 -55 -10 -16 -29 -18 -154 -18 -125 0 -144 2 -154 18 -8 12
-8 22 0 35 9 14 28 18 96 20 l85 3 -12 37 -13 37 -72 5 c-80 5 -106 23 -84 58
9 13 28 18 88 20 69 3 76 5 76 23 0 25 17 59 30 59 5 0 13 -8 18 -17z m3617
-112 c-4 -17 -10 -31 -14 -31 -5 0 -3 15 3 34 13 42 21 39 11 -3z m-4318 -93
c-3 -8 -6 -5 -6 6 -1 11 2 17 5 13 3 -3 4 -12 1 -19z m4330 0 c-3 -8 -6 -5 -6
6 -1 11 2 17 5 13 3 -3 4 -12 1 -19z m-4340 -40 c-3 -8 -6 -5 -6 6 -1 11 2 17
5 13 3 -3 4 -12 1 -19z m-10 -40 c-3 -8 -6 -5 -6 6 -1 11 2 17 5 13 3 -3 4
-12 1 -19z m-10 -50 c-3 -8 -6 -5 -6 6 -1 11 2 17 5 13 3 -3 4 -12 1 -19z
m4390 0 c-3 -8 -6 -5 -6 6 -1 11 2 17 5 13 3 -3 4 -12 1 -19z m-4102 -38 c9
-10 20 -40 22 -64 5 -38 2 -47 -12 -53 -34 -12 -92 92 -70 126 10 17 40 13 60
-9z m1005 -11 c0 -4 -8 -10 -18 -14 -26 -8 -42 -47 -42 -100 0 -31 -4 -45 -13
-45 -12 0 -12 12 -1 73 23 123 21 118 49 105 14 -6 25 -15 25 -19z m-1303 -1
c-3 -8 -6 -5 -6 6 -1 11 2 17 5 13 3 -3 4 -12 1 -19z m4410 -10 c-3 -7 -5 -2
-5 12 0 14 2 19 5 13 2 -7 2 -19 0 -25z m-3439 -6 c27 -16 28 -28 2 -42 -31
-17 -365 -24 -401 -10 -29 13 -45 42 -33 61 9 16 401 7 432 -9z m-981 -54 c-3
-7 -5 -2 -5 12 0 14 2 19 5 13 2 -7 2 -19 0 -25z m4452 -33 c0 -11 -6 -2 -14
20 -18 50 -18 57 0 25 8 -14 14 -34 14 -45z m-4462 -32 c-3 -10 -5 -4 -5 12 0
17 2 24 5 18 2 -7 2 -21 0 -30z m383 -143 l0 -120 -77 0 -78 0 -40 -62 -40
-63 -5 130 c-5 127 -6 131 -37 177 -18 26 -33 49 -33 52 0 3 70 6 155 6 l155
0 0 -120z m474 98 c8 -13 8 -23 0 -35 -10 -16 -30 -18 -149 -21 -141 -3 -165
3 -165 37 0 37 20 42 164 39 119 -3 140 -5 150 -20z m-867 -75 c-2 -16 -4 -5
-4 22 0 28 2 40 4 28 2 -13 2 -35 0 -50z m867 -85 c8 -13 8 -23 0 -35 -10 -16
-30 -18 -149 -21 -141 -3 -165 3 -165 37 0 37 20 42 164 39 119 -3 140 -5 150
-20z m206 -35 c0 -33 -106 -143 -138 -143 -57 0 14 108 103 158 30 17 35 15
35 -15z m-560 -2 c0 -34 -86 -126 -128 -137 -65 -18 -36 59 45 121 52 39 83
45 83 16z m347 -118 c4 -10 -3 -24 -21 -40 -24 -21 -37 -23 -121 -23 -52 0
-105 5 -119 12 -27 11 -42 40 -31 58 4 6 63 10 146 10 121 0 140 -2 146 -17z
m-860 -90 c-2 -16 -4 -5 -4 22 0 28 2 40 4 28 2 -13 2 -35 0 -50z m4470 5 c-2
-13 -4 -3 -4 22 0 25 2 35 4 23 2 -13 2 -33 0 -45z m-3459 -122 c88 -91 87
-105 -21 -213 -118 -118 -115 -118 -279 44 l-128 127 52 53 52 53 132 0 131 0
61 -64z m3449 27 c-3 -10 -5 -4 -5 12 0 17 2 24 5 18 2 -7 2 -21 0 -30z
m-4450 -10 c-3 -10 -5 -4 -5 12 0 17 2 24 5 18 2 -7 2 -21 0 -30z m10 -65 c-3
-7 -5 -2 -5 12 0 14 2 19 5 13 2 -7 2 -19 0 -25z m4430 0 c-3 -7 -5 -2 -5 12
0 14 2 19 5 13 2 -7 2 -19 0 -25z m-3178 -23 c-21 -35 -30 -41 -42 -28 -8 7
41 63 55 63 4 0 -2 -16 -13 -35z m-1242 -37 c-3 -7 -5 -2 -5 12 0 14 2 19 5
13 2 -7 2 -19 0 -25z m4410 0 c-3 -7 -5 -2 -5 12 0 14 2 19 5 13 2 -7 2 -19 0
-25z m-4400 -50 c-3 -8 -6 -5 -6 6 -1 11 2 17 5 13 3 -3 4 -12 1 -19z m4390 0
c-3 -8 -6 -5 -6 6 -1 11 2 17 5 13 3 -3 4 -12 1 -19z m-3680 -84 c58 -44 107
-124 84 -139 -35 -21 -183 121 -167 161 7 19 38 11 83 -22z m-690 -6 c-3 -8
-6 -5 -6 6 -1 11 2 17 5 13 3 -3 4 -12 1 -19z m23 -76 c0 -11 -11 -24 -25 -30
-37 -17 -45 -14 -12 4 15 8 27 21 27 29 0 8 2 15 5 15 3 0 5 -8 5 -18z m4340
-27 c14 -8 21 -14 15 -14 -5 0 -21 6 -35 14 -14 8 -20 14 -15 14 6 0 21 -6 35
-14z m-4477 -22 c-7 -2 -19 -2 -25 0 -7 3 -2 5 12 5 14 0 19 -2 13 -5z m60 0
c-7 -2 -21 -2 -30 0 -10 3 -4 5 12 5 17 0 24 -2 18 -5z m4490 0 c-7 -2 -21 -2
-30 0 -10 3 -4 5 12 5 17 0 24 -2 18 -5z m50 0 c-7 -2 -19 -2 -25 0 -7 3 -2 5
12 5 14 0 19 -2 13 -5z m-4080 -753 c-41 -19 -62 -39 -86 -85 -9 -16 -16 -25
-17 -19 -1 35 111 141 133 127 5 -3 -8 -13 -30 -23z m3585 -24 c25 -22 57 -75
49 -82 -2 -3 -10 9 -17 26 -15 36 -61 77 -96 86 -13 3 -21 10 -18 15 5 9 44
-12 82 -45z m-3512 -8 l29 -33 -32 29 c-31 28 -38 36 -30 36 2 0 16 -15 33
-32z m3424 29 c0 -2 -12 -14 -27 -28 l-28 -24 24 28 c23 25 31 32 31 24z
m-3310 -152 c47 -47 82 -85 80 -85 -3 0 -43 38 -90 85 -47 47 -82 85 -80 85 3
0 43 -38 90 -85z m3190 19 c-36 -36 -92 -89 -125 -117 -33 -28 -6 1 60 65 131
127 168 157 65 52z m-3064 -136 l29 -33 -32 29 c-31 28 -38 36 -30 36 2 0 16
-15 33 -32z m59 -48 c10 -11 16 -20 13 -20 -3 0 -13 9 -23 20 -10 11 -16 20
-13 20 3 0 13 -9 23 -20z m2815 17 c0 -2 -10 -12 -22 -23 l-23 -19 19 23 c18
21 26 27 26 19z m-2720 -94 c0 -7 -58 36 -66 49 -4 7 9 -1 29 -16 20 -16 37
-30 37 -33z m2665 47 c-3 -5 -20 -19 -38 -30 -32 -22 -32 -22 3 9 37 32 45 37
35 21z m-110 -80 c-3 -5 -16 -15 -28 -21 -19 -9 -19 -8 3 10 28 23 34 26 25
11z m-2438 -117 c-22 -42 -86 -94 -114 -93 -4 1 6 8 22 17 43 22 72 51 86 84
6 16 14 28 16 25 2 -2 -2 -17 -10 -33z m2409 -44 c11 -9 33 -24 49 -32 17 -9
25 -16 19 -17 -33 -1 -125 91 -124 124 1 6 9 -5 19 -24 11 -19 27 -42 37 -51z
m-345 -66 c12 -16 12 -17 -1 -7 -8 6 -22 14 -30 17 -13 5 -12 6 1 6 9 1 23 -7
30 -16z m-1671 -11 c0 -5 -7 -17 -15 -28 -14 -18 -14 -17 -4 9 12 27 19 34 19
19z m105 -32 c13 -6 15 -9 5 -9 -8 0 -22 4 -30 9 -18 12 -2 12 25 0z m82 -26
c-3 -3 -12 -4 -19 -1 -8 3 -5 6 6 6 11 1 17 -2 13 -5z m1520 -31 c-3 -10 -5
-4 -5 12 0 17 2 24 5 18 2 -7 2 -21 0 -30z m-360 11 c-3 -3 -12 -4 -19 -1 -8
3 -5 6 6 6 11 1 17 -2 13 -5z m-1390 -36 c-3 -7 -5 -2 -5 12 0 14 2 19 5 13 2
-7 2 -19 0 -25z m350 26 c-3 -3 -12 -4 -19 -1 -8 3 -5 6 6 6 11 1 17 -2 13 -5z
m40 -10 c-3 -3 -12 -4 -19 -1 -8 3 -5 6 6 6 11 1 17 -2 13 -5z m910 0 c-3 -3
-12 -4 -19 -1 -8 3 -5 6 6 6 11 1 17 -2 13 -5z m-854 -11 c-7 -2 -19 -2 -25 0
-7 3 -2 5 12 5 14 0 19 -2 13 -5z m804 1 c-3 -3 -12 -4 -19 -1 -8 3 -5 6 6 6
11 1 17 -2 13 -5z m-744 -11 c-7 -2 -19 -2 -25 0 -7 3 -2 5 12 5 14 0 19 -2
13 -5z m680 0 c-7 -2 -19 -2 -25 0 -7 3 -2 5 12 5 14 0 19 -2 13 -5z m564 -30
c-3 -10 -5 -4 -5 12 0 17 2 24 5 18 2 -7 2 -21 0 -30z m-1169 20 c-10 -2 -26
-2 -35 0 -10 3 -2 5 17 5 19 0 27 -2 18 -5z m535 0 c-7 -2 -21 -2 -30 0 -10 3
-4 5 12 5 17 0 24 -2 18 -5z m-1116 -40 c-3 -10 -5 -4 -5 12 0 17 2 24 5 18 2
-7 2 -21 0 -30z m696 30 c-13 -2 -33 -2 -45 0 -13 2 -3 4 22 4 25 0 35 -2 23
-4z m320 0 c-13 -2 -33 -2 -45 0 -13 2 -3 4 22 4 25 0 35 -2 23 -4z"/>
<path d="M2995 3680 c-22 -11 -78 -58 -125 -105 l-85 -85 22 -21 c20 -20 21
-21 49 -3 16 10 61 48 100 86 60 57 77 68 106 68 43 0 75 -32 80 -80 2 -28 8
-36 26 -38 30 -4 52 14 52 43 0 38 -11 55 -34 55 -28 0 -66 39 -66 67 0 38
-62 45 -125 13z"/>
<path d="M3556 3505 c-22 -7 -49 -23 -60 -35 l-21 -21 34 12 c108 38 334 -98
443 -266 54 -83 85 -186 70 -239 l-10 -41 23 28 c35 39 46 91 34 146 -35 155
-190 333 -346 395 -80 32 -121 38 -167 21z"/>
<path d="M4511 3289 c15 -43 14 -42 27 -26 9 11 6 19 -13 37 l-25 24 11 -35z"/>
<path d="M4632 2775 c0 -16 2 -22 5 -12 2 9 2 23 0 30 -3 6 -5 -1 -5 -18z"/>
<path d="M2780 2554 c-60 -25 -76 -83 -39 -143 36 -60 41 -63 294 -181 76 -35
221 -144 285 -215 37 -41 135 -86 199 -92 35 -4 124 -33 241 -79 190 -74 562
-204 585 -204 7 0 21 24 31 53 9 28 19 57 21 63 3 7 -16 14 -49 18 -101 13
-263 48 -378 83 -141 42 -320 111 -320 123 0 5 7 35 15 67 8 31 15 77 15 100
0 46 6 51 36 28 16 -12 85 -14 432 -15 l412 0 0 40 0 40 -141 0 c-125 0 -146
2 -179 21 -40 22 -80 82 -80 118 0 18 -6 21 -39 21 -40 0 -40 0 -43 -42 l-3
-42 -190 -33 c-104 -17 -197 -32 -205 -32 -8 0 -23 18 -34 40 -26 57 -119 154
-173 180 -39 19 -71 23 -207 30 -108 5 -189 15 -246 29 -88 22 -214 34 -240
24z m797 -404 c10 -20 10 -28 -1 -39 -28 -27 -86 18 -72 55 9 24 58 13 73 -16z"/>
<path d="M1669 1812 c-115 -197 -275 -510 -266 -519 3 -2 89 141 192 317 l188
320 26 -17 c56 -37 151 -93 157 -93 4 0 -22 30 -57 68 -36 37 -75 84 -88 105
-12 20 -23 37 -24 37 -1 -1 -59 -99 -128 -218z"/>
<path d="M1901 1613 c-58 -98 -132 -223 -166 -278 -34 -55 -111 -183 -170
-284 -104 -176 -108 -184 -89 -198 10 -8 18 -22 17 -31 -1 -12 26 -31 98 -66
54 -27 100 -48 102 -45 21 27 46 83 41 91 -5 7 -2 8 6 3 10 -6 12 -4 7 8 -3 9
-1 19 5 23 7 5 8 2 4 -7 -4 -8 0 -5 8 6 9 11 14 25 12 32 -3 7 0 15 6 19 7 4
8 3 4 -4 -4 -7 -5 -12 -2 -12 3 0 13 14 22 31 11 23 12 29 2 23 -7 -4 0 5 15
20 16 15 26 33 23 41 -3 8 0 17 6 21 7 5 8 2 4 -7 -4 -8 0 -5 8 6 9 11 14 25
12 32 -3 7 0 15 6 19 7 4 8 3 4 -4 -4 -7 -5 -12 -2 -12 3 0 13 14 22 31 11 23
12 29 2 23 -7 -4 -1 4 15 19 27 26 37 44 16 31 -8 -4 -8 0 0 15 12 22 27 30
16 9 -4 -7 1 -4 9 7 9 11 14 25 12 32 -3 7 0 15 6 19 7 4 8 3 4 -4 -4 -7 -5
-12 -2 -12 3 0 13 14 22 31 11 23 12 29 2 23 -7 -4 -1 4 15 19 27 26 37 44 16
31 -8 -4 -8 0 0 15 12 22 27 30 16 9 -4 -7 1 -4 9 7 9 11 14 25 12 32 -3 7 0
15 6 19 7 4 8 3 4 -4 -4 -7 -5 -12 -2 -12 3 0 13 14 22 31 11 23 12 29 2 23
-7 -4 -1 4 15 19 27 26 37 44 16 31 -8 -4 -8 0 0 15 7 11 14 21 17 21 3 0 2
-4 -1 -10 -3 -5 -4 -10 -1 -10 3 0 13 14 22 31 11 23 12 29 2 24 -7 -3 -5 0 4
8 10 8 15 17 11 20 -3 4 0 7 7 7 7 0 10 3 7 6 -3 4 0 16 8 28 8 11 15 24 15
27 0 4 -25 19 -55 33 -30 13 -74 38 -99 55 -25 17 -47 31 -49 31 -3 0 -17 -20
-31 -45 l-27 -45 22 -29 c27 -37 37 -86 27 -134 -5 -23 -87 -163 -200 -339
-212 -333 -199 -299 -132 -346 11 -7 -13 4 -52 24 -39 20 -81 44 -93 53 l-22
17 63 109 c34 61 145 251 246 423 101 173 182 318 180 323 -2 5 -50 -70 -107
-168z"/>
<path d="M2931 1338 c-19 -57 -36 -109 -38 -115 -4 -10 17 -13 83 -13 l89 0
20 37 c28 53 77 83 135 83 87 0 397 -96 608 -188 l92 -41 0 49 0 48 -87 37
c-253 107 -507 170 -808 200 l-61 5 -33 -102z"/>
</g>
</svg>
